<?xml version="1.0" encoding="UTF-8" standalone="no"?>
<svg width="1024px" height="1024px" viewBox="0 0 1024 1024" version="1.1" xmlns="http://www.w3.org/2000/svg" xmlns:xlink="http://www.w3.org/1999/xlink" xmlns:sketch="http://www.bohemiancoding.com/sketch/ns">
    <!-- Generator: Sketch 3.3.1 (12005) - http://www.bohemiancoding.com/sketch -->
    <title>DarkWhite</title>
    <desc>Created with Sketch.</desc>
    <defs></defs>
    <g id="Page-1" stroke="none" stroke-width="1" fill="none" fill-rule="evenodd" sketch:type="MSPage">
        <g id="DarkWhite" sketch:type="MSArtboardGroup">
            <path d="M357.009067,0 L666.990933,0 C769.792,0 821.179733,0 876.5184,17.4933333 C936.9344,39.4837333 984.516267,87.0656 1006.50667,147.4816 C1024,202.811733 1024,254.216533 1024,357.009067 L1024,666.990933 C1024,769.792 1024,821.179733 1006.50667,876.5184 C984.516267,936.9344 936.9344,984.516267 876.5184,1006.49813 C821.179733,1024 769.792,1024 666.990933,1024 L357.009067,1024 C254.208,1024 202.811733,1024 147.4816,1006.49813 C87.0656,984.516267 39.4837333,936.9344 17.4933333,876.5184 C0,821.179733 0,769.792 0,666.990933 L0,357.009067 C0,254.216533 0,202.811733 17.4933333,147.4816 C39.4837333,87.0656 87.0656,39.4837333 147.4816,17.4933333 C202.811733,0 254.208,0 357.009067,0 L357.009067,0" id="Icon-Shape" fill="#474350" sketch:type="MSShapeGroup"></path>
            <g id="leaf32" sketch:type="MSLayerGroup" transform="translate(210.000000, 149.000000)" fill="#FFFFFF">
                <g id="Leaf" sketch:type="MSShapeGroup">
                    <path d="M368.607523,98.9067905 C-185.849931,275.326867 47.9883911,619.120422 55.6170205,620.253428 C55.6170205,620.253428 86.7083779,572.624209 128.707805,545.457566 C395.219979,373.105035 455.734373,188.75 455.734373,188.75 C455.734373,188.75 389.58282,413.440862 152.480318,561.980126 C100.113035,594.770185 70.6270618,622.68561 55.61702,703.380085 C55.61702,703.380085 63.2322251,721.905705 83.5019508,724.994141 C91.5132945,726.214804 97.366321,725.317343 111.7786,719.466614 C115.312992,699.177511 117.366805,691.383599 121.128904,681.367188 C123.992518,673.742949 127.155206,664.482701 136.755857,649.482422 C468.135034,684.189463 583.88015,438.733481 598.058505,356.828139 C631.522841,163.384778 492.406248,0.015625 492.406248,0.015625 C492.406248,0.015625 443.480712,75.085469 368.607523,98.9067905 Z" id="Shape"></path>
                </g>
            </g>
            <g id="leaf32-copy" sketch:type="MSLayerGroup" transform="translate(218.000000, 158.000000)" fill="#FFFFFF">
                <g id="Leaf" sketch:type="MSShapeGroup">
                    <path d="M368.607523,98.9067905 C-185.849931,275.326867 47.9883911,619.120422 55.6170205,620.253428 C55.6170205,620.253428 86.7083779,572.624209 128.707805,545.457566 C395.219979,373.105035 455.734373,188.75 455.734373,188.75 C455.734373,188.75 389.58282,413.440862 152.480318,561.980126 C100.113035,594.770185 70.6270618,622.68561 55.61702,703.380085 C55.61702,703.380085 63.2322251,721.905705 83.5019508,724.994141 C91.5132945,726.214804 97.366321,725.317343 111.7786,719.466614 C115.312992,699.177511 117.366805,691.383599 121.128904,681.367188 C123.992518,673.742949 127.155206,664.482701 136.755857,649.482422 C468.135034,684.189463 583.88015,438.733481 598.058505,356.828139 C631.522841,163.384778 492.406248,0.015625 492.406248,0.015625 C492.406248,0.015625 443.480712,75.085469 368.607523,98.9067905 Z" id="Shape"></path>
                </g>
            </g>
        </g>
    </g>
</svg>